# xmcd CD database file
#
# Track frame offsets:
#	150
#	44618
#	76368
#	111735
#	162173
#	210906
#	251555
#	275751
#	294119
#	308035
#	337523
#
# Disc length: 4638 seconds
#
# Revision: 0
# Processed by: cddbd v1.5.2PL0 Copyright (c) Steve Scherf et al.
# Submitted via: CDex 1.51
#
DISCID=95121c0b
DTITLE=Bill Frisell - Further East - Further West
DYEAR=2004
DGENRE=Jazz
TTITLE0=Lookout for Hope
TTITLE1=Monroe
TTITLE2=Big Shoe
TTITLE3=Egg Radio
TTITLE4=Lost Highway
TTITLE5=Masters of War
TTITLE6=What the World Needs Now Is Love
TTITLE7=Somewhere Over the Rainbow
TTITLE8=Prelude - Body and Soul
TTITLE9=Paradox
TTITLE10=Cluck Old Hen
EXTD=YEAR: 2004
EXTT0=
EXTT1=
EXTT2=
EXTT3=
EXTT4=
EXTT5=
EXTT6=
EXTT7=
EXTT8=
EXTT9=
EXTT10=
PLAYORDER=
